REM DIRINDEX 1\2,1\3,1\4,1\5,1\6
REM DIRNAME folder01,folder02,folder03,folder04,folder05,folder06
TITLE ""
FILE "Disc5Track15.mp3" MP3
  TRACK 01 AUDIO
    TITLE "2:cjc030_08668"
    INDEX 01 00:00:00
  TRACK 02 AUDIO
    TITLE "0:"
    INDEX 01 00:04:09
  TRACK 03 AUDIO
    TITLE "3:cjc030_08669"
    INDEX 01 00:04:56
  TRACK 04 AUDIO
    TITLE "0:"
    INDEX 01 00:05:63
  TRACK 05 AUDIO
    TITLE "4:cjc030_08670"
    INDEX 01 00:05:73
  TRACK 06 AUDIO
    TITLE "0:"
    INDEX 01 00:08:03
  TRACK 07 AUDIO
    TITLE "5:cjc030_08671"
    INDEX 01 00:08:13
  TRACK 08 AUDIO
    TITLE "0:"
    INDEX 01 00:09:20
  TRACK 09 AUDIO
    TITLE "6:cjc030_08672"
    INDEX 01 00:09:32
  TRACK 10 AUDIO
    TITLE "0:"
    INDEX 01 00:13:28
  TRACK 11 AUDIO
    TITLE "3:cjc030_08673"
    INDEX 01 00:14:02
  TRACK 12 AUDIO
    TITLE "0:"
    INDEX 01 00:15:19
  TRACK 13 AUDIO
    TITLE "4:cjc030_08674"
    INDEX 01 00:15:25
  TRACK 14 AUDIO
    TITLE "0:"
    INDEX 01 00:16:34
  TRACK 15 AUDIO
    TITLE "5:cjc030_08675"
    INDEX 01 00:16:42
  TRACK 16 AUDIO
    TITLE "0:"
    INDEX 01 00:17:57
  TRACK 17 AUDIO
    TITLE "3:cjc030_08676"
    INDEX 01 00:18:42
  TRACK 18 AUDIO
    TITLE "0:"
    INDEX 01 00:19:56
  TRACK 19 AUDIO
    TITLE "4:cjc030_08677"
    INDEX 01 00:19:63
  TRACK 20 AUDIO
    TITLE "0:"
    INDEX 01 00:20:55
  TRACK 21 AUDIO
    TITLE "5:cjc030_08678"
    INDEX 01 00:20:65
  TRACK 22 AUDIO
    TITLE "0:"
    INDEX 01 00:22:01
  TRACK 23 AUDIO
    TITLE "6:cjc030_08679"
    INDEX 01 00:22:19
  TRACK 24 AUDIO
    TITLE "0:"
    INDEX 01 00:27:47
  TRACK 25 AUDIO
    TITLE "3:cjc030_08680"
    INDEX 01 00:28:21
  TRACK 26 AUDIO
    TITLE "0:"
    INDEX 01 00:29:21
  TRACK 27 AUDIO
    TITLE "4:cjc030_08681"
    INDEX 01 00:29:27
  TRACK 28 AUDIO
    TITLE "0:"
    INDEX 01 00:31:12
  TRACK 29 AUDIO
    TITLE "5:cjc030_08682"
    INDEX 01 00:31:20
  TRACK 30 AUDIO
    TITLE "0:"
    INDEX 01 00:32:19
  TRACK 31 AUDIO
    TITLE "6:cjc030_08683"
    INDEX 01 00:32:35
  TRACK 32 AUDIO
    TITLE "0:"
    INDEX 01 00:33:64
  TRACK 33 AUDIO
    TITLE "3:cjc030_08684"
    INDEX 01 00:34:42
  TRACK 34 AUDIO
    TITLE "0:"
    INDEX 01 00:35:45
  TRACK 35 AUDIO
    TITLE "4:cjc030_08685"
    INDEX 01 00:35:53
  TRACK 36 AUDIO
    TITLE "0:"
    INDEX 01 00:36:64
  TRACK 37 AUDIO
    TITLE "5:cjc030_08686"
    INDEX 01 00:36:72
  TRACK 38 AUDIO
    TITLE "0:"
    INDEX 01 00:38:02
  TRACK 39 AUDIO
    TITLE "6:cjc030_08687"
    INDEX 01 00:38:16
  TRACK 40 AUDIO
    TITLE "0:"
    INDEX 01 00:40:64
  TRACK 41 AUDIO
    TITLE "3:cjc030_08688"
    INDEX 01 00:41:40
  TRACK 42 AUDIO
    TITLE "0:"
    INDEX 01 00:42:57
  TRACK 43 AUDIO
    TITLE "4:cjc030_08689"
    INDEX 01 00:42:63
  TRACK 44 AUDIO
    TITLE "0:"
    INDEX 01 00:43:62
  TRACK 45 AUDIO
    TITLE "5:cjc030_08690"
    INDEX 01 00:43:72
  TRACK 46 AUDIO
    TITLE "0:"
    INDEX 01 00:45:12
  TRACK 47 AUDIO
    TITLE "6:cjc030_08691"
    INDEX 01 00:45:26
  TRACK 48 AUDIO
    TITLE "0:"
    INDEX 01 00:49:16
  TRACK 49 AUDIO
    TITLE "3:cjc030_08692"
    INDEX 01 00:49:67
  TRACK 50 AUDIO
    TITLE "0:"
    INDEX 01 00:51:05
  TRACK 51 AUDIO
    TITLE "4:cjc030_08693"
    INDEX 01 00:51:11
  TRACK 52 AUDIO
    TITLE "0:"
    INDEX 01 00:52:18
  TRACK 53 AUDIO
    TITLE "5:cjc030_08694"
    INDEX 01 00:52:24
  TRACK 54 AUDIO
    TITLE "0:"
    INDEX 01 00:53:39
  TRACK 55 AUDIO
    TITLE "3:cjc030_08695"
    INDEX 01 00:54:19
  TRACK 56 AUDIO
    TITLE "0:"
    INDEX 01 00:55:42
  TRACK 57 AUDIO
    TITLE "4:cjc030_08696"
    INDEX 01 00:55:48
  TRACK 58 AUDIO
    TITLE "0:"
    INDEX 01 00:56:69
  TRACK 59 AUDIO
    TITLE "5:cjc030_08697"
    INDEX 01 00:57:03
  TRACK 60 AUDIO
    TITLE "0:"
    INDEX 01 00:58:22
  TRACK 61 AUDIO
    TITLE "6:cjc030_08698"
    INDEX 01 00:58:32
  TRACK 62 AUDIO
    TITLE "0:"
    INDEX 01 01:03:10
